<?xml version="1.0" encoding="utf-8"?>
<!-- Generator: Adobe Illustrator 16.0.0, SVG Export Plug-In . SVG Version: 6.00 Build 0)  -->
<!DOCTYPE svg PUBLIC "-//W3C//DTD SVG 1.1//EN" "http://www.w3.org/Graphics/SVG/1.1/DTD/svg11.dtd">
<svg version="1.1" id="Layer_1" xmlns="http://www.w3.org/2000/svg" xmlns:xlink="http://www.w3.org/1999/xlink" x="0px" y="0px"
	 width="48px" height="48px" viewBox="0 0 48 48" enable-background="new 0 0 48 48" xml:space="preserve">
<path fill="none" d="M0,0h48v48H0V0z"/>
<path fill="none" stroke="#FFFFFF" stroke-miterlimit="10" d="M20,24c-2.2,0-4,1.8-4,4s1.8,4,4,4s4-1.8,4-4S22.2,24,20,24z"/>
<path fill="#FFFFFF" d="M12,16c-2.2,0-4,1.8-4,4s1.8,4,4,4s4-1.8,4-4S14.2,16,12,16z"/>
<path fill="#FFFFFF" d="M12,32c-2.2,0-4,1.8-4,4s1.8,4,4,4s4-1.8,4-4S14.2,32,12,32z"/>
<path fill="none" stroke="#FFFFFF" stroke-miterlimit="10" d="M36,16c2.2,0,4-1.8,4-4s-1.8-4-4-4s-4,1.8-4,4S33.8,16,36,16z"/>
<path fill="#FFFFFF" d="M28,32c-2.2,0-4,1.8-4,4s1.8,4,4,4s4-1.8,4-4S30.2,32,28,32z"/>
<path fill="none" stroke="#FFFFFF" stroke-miterlimit="10" d="M36,24c-2.2,0-4,1.8-4,4s1.8,4,4,4s4-1.8,4-4S38.2,24,36,24z"/>
<path fill="#FFFFFF" d="M28,16c-2.2,0-4,1.8-4,4s1.8,4,4,4s4-1.8,4-4S30.2,16,28,16z"/>
<path fill="none" stroke="#FFFFFF" stroke-miterlimit="10" d="M20,8c-2.2,0-4,1.8-4,4s1.8,4,4,4s4-1.8,4-4S22.2,8,20,8z"/>
</svg>
