<?xml version="1.0" encoding="utf-8"?>
<!-- Generator: Adobe Illustrator 16.0.0, SVG Export Plug-In . SVG Version: 6.00 Build 0)  -->
<!DOCTYPE svg PUBLIC "-//W3C//DTD SVG 1.1//EN" "http://www.w3.org/Graphics/SVG/1.1/DTD/svg11.dtd">
<svg version="1.1" id="Layer_1" xmlns="http://www.w3.org/2000/svg" xmlns:xlink="http://www.w3.org/1999/xlink" x="0px" y="0px"
	 width="123.878px" height="122.986px" viewBox="0 0 123.878 122.986" enable-background="new 0 0 123.878 122.986"
	 xml:space="preserve">
<path fill-rule="evenodd" clip-rule="evenodd" d="M55.523,117.784c-6.884-0.041-13.808-0.025-20.521-1.843
	c-11.265-3.049-20.456-9.091-25.572-19.836c-6.344-13.322-4.489-26.06,4.334-37.75c1.754-2.324,4.086-4.226,6.233-6.236
	c1.495-1.4,1.445-2.577-0.367-3.538c-4.118-2.184-8.05-4.638-11.281-8.046c-2.527-2.666-4.447-5.672-4.468-9.52
	c-0.025-4.699,3.058-7.866,7.756-7.945c1.381-0.024,2.786,0.023,4.143,0.256c3.215,0.552,5.347-0.811,6.801-3.55
	c2.149-4.051,5.038-7.45,8.787-10.119c9.978-7.104,23.837-6.563,33.212,1.324c6.885,5.792,10.23,13.256,9.97,22.182
	c-0.175,6.034-2.156,11.589-6.176,16.193c-1.469,1.682-0.532,3.312,1.22,3.605c5.955,0.997,11.875,1.115,17.773-0.446
	c5.373-1.421,9.262-4.705,12.154-9.337c0.593-0.95,1.259-1.879,2.027-2.691c1.638-1.733,3.079-1.831,5.058-0.399
	c2.713,1.963,4.828,4.503,6.521,7.349c5.245,8.81,6.674,18.363,5.34,28.428c-0.963,7.261-3.443,13.934-7.666,19.937
	c-5.061,7.194-11.873,12.191-19.851,15.688c-9.174,4.021-18.865,5.732-28.796,6.278C59.951,117.886,57.734,117.784,55.523,117.784z
	 M56.85,113.141c2.328-0.143,5.794-0.277,9.246-0.584c8.078-0.716,15.933-2.413,23.36-5.764c8.981-4.052,16.14-10.113,20.47-19.128
	c3.974-8.272,5.012-16.989,3.417-25.993c-0.982-5.545-3.06-10.648-6.8-14.969c-1.151-1.33-2.385-1.332-3.482,0.029
	c-0.435,0.539-0.804,1.131-1.216,1.689c-2.452,3.314-5.521,5.883-9.355,7.427c-8.747,3.52-17.684,3.323-26.688,1.175
	c-0.659-0.158-1.305-0.493-1.879-0.866c-2.437-1.583-3.056-4.169-1.559-6.662c0.599-0.999,1.343-1.916,2.072-2.829
	c5.041-6.313,6.539-13.32,4.246-21.114c-4.72-16.04-25.473-21.412-37.233-9.52c-2.127,2.151-3.657,4.909-5.373,7.448
	c-2.564,3.795-6.009,5.465-10.587,4.728c-1.106-0.178-2.245-0.245-3.366-0.219c-2.232,0.05-3.75,1.928-3.146,4.068
	c0.367,1.302,0.983,2.611,1.785,3.698c2.28,3.091,5.409,5.221,8.69,7.123c1.798,1.042,3.705,1.908,5.442,3.039
	c3.307,2.152,3.535,5.144,0.708,7.897c-0.526,0.512-1.088,0.997-1.68,1.431c-5.021,3.682-8.818,8.346-11.022,14.179
	c-3.389,8.969-3.079,17.793,1.786,26.171c4.893,8.427,12.519,13.264,21.781,15.666C42.771,112.898,49.251,112.93,56.85,113.141z"/>
<path fill-rule="evenodd" clip-rule="evenodd" fill="#FFFFFF" d="M56.85,113.141c-7.599-0.211-14.08-0.243-20.383-1.878
	c-9.262-2.402-16.888-7.239-21.781-15.666C9.821,87.219,9.511,78.395,12.9,69.426c2.204-5.833,6.001-10.497,11.022-14.179
	c0.592-0.434,1.154-0.918,1.68-1.431c2.827-2.753,2.6-5.745-0.708-7.897c-1.737-1.131-3.645-1.997-5.442-3.039
	c-3.281-1.902-6.41-4.032-8.69-7.123C9.96,34.67,9.345,33.36,8.978,32.059c-0.604-2.14,0.915-4.018,3.146-4.068
	c1.121-0.025,2.26,0.041,3.366,0.219c4.579,0.737,8.023-0.933,10.587-4.728c1.715-2.539,3.245-5.297,5.373-7.448
	c11.76-11.892,32.514-6.52,37.233,9.52c2.293,7.793,0.795,14.801-4.246,21.114c-0.729,0.913-1.473,1.83-2.072,2.829
	c-1.497,2.493-0.877,5.08,1.559,6.662c0.574,0.373,1.22,0.708,1.879,0.866c9.004,2.147,17.94,2.345,26.688-1.175
	c3.834-1.543,6.903-4.113,9.355-7.427c0.412-0.558,0.781-1.15,1.216-1.689c1.097-1.36,2.331-1.358,3.482-0.029
	c3.74,4.321,5.818,9.423,6.8,14.969c1.595,9.004,0.557,17.721-3.417,25.993c-4.33,9.015-11.489,15.076-20.47,19.128
	c-7.427,3.351-15.282,5.048-23.36,5.764C62.644,112.864,59.178,112.999,56.85,113.141z M57.476,100.549
	c5.967-0.029,12.251-1.699,18.179-4.672c9.682-4.856,17.644-11.912,24.904-19.82c1.194-1.301,2.269-2.727,3.268-4.184
	c0.668-0.975,0.22-1.917-0.586-2.664c-0.808-0.749-1.741-0.879-2.594-0.183c-1.001,0.817-1.963,1.705-2.828,2.664
	c-6.45,7.154-13.386,13.728-21.873,18.463c-5.802,3.237-11.974,5.311-18.665,5.384c-7.836,0.086-14.877-2.499-21.366-6.767
	c-0.792-0.521-1.628-1.008-2.505-1.356c-1.143-0.455-2.01,0.116-2.686,1.029c-0.633,0.855-0.352,1.664,0.221,2.382
	c0.429,0.538,0.91,1.07,1.469,1.461C39.729,97.395,47.736,100.491,57.476,100.549z M37.558,23.448
	c-4.229-0.085-7.873,3.454-7.897,7.672c-0.023,3.938,3.558,7.547,7.57,7.629c4.12,0.084,7.691-3.36,7.774-7.5
	C45.088,27.09,41.692,23.532,37.558,23.448z"/>
<path fill-rule="evenodd" clip-rule="evenodd" d="M57.476,100.549c-9.739-0.059-17.746-3.154-25.062-8.263
	c-0.559-0.391-1.041-0.923-1.469-1.461c-0.572-0.718-0.854-1.526-0.221-2.382c0.676-0.913,1.542-1.484,2.686-1.029
	c0.877,0.349,1.713,0.836,2.505,1.356c6.489,4.268,13.53,6.853,21.366,6.767c6.691-0.073,12.863-2.146,18.665-5.384
	c8.486-4.735,15.423-11.309,21.873-18.463c0.865-0.959,1.826-1.847,2.828-2.664c0.854-0.696,1.787-0.566,2.594,0.183
	c0.806,0.747,1.254,1.689,0.586,2.664c-0.999,1.458-2.074,2.883-3.268,4.184c-7.26,7.908-15.222,14.963-24.904,19.82
	C69.727,98.85,63.442,100.52,57.476,100.549z"/>
<path fill-rule="evenodd" clip-rule="evenodd" d="M37.558,23.448c4.134,0.084,7.53,3.642,7.447,7.802
	c-0.083,4.14-3.654,7.584-7.774,7.5c-4.013-0.082-7.594-3.691-7.57-7.629C29.686,26.902,33.329,23.363,37.558,23.448z
	 M37.417,28.509c-1.223-0.031-2.615,1.295-2.661,2.536c-0.045,1.219,1.269,2.644,2.497,2.708c1.232,0.064,2.736-1.362,2.758-2.614
	C40.031,29.942,38.649,28.541,37.417,28.509z"/>
<path fill-rule="evenodd" clip-rule="evenodd" fill="#FFFFFF" d="M37.417,28.509c1.232,0.032,2.615,1.433,2.594,2.63
	c-0.022,1.252-1.526,2.678-2.758,2.614c-1.228-0.063-2.542-1.488-2.497-2.708C34.801,29.804,36.193,28.478,37.417,28.509z"/>
</svg>
